<svg width="83" height="38" viewBox="0 0 83 38" fill="none" xmlns="http://www.w3.org/2000/svg">
<path d="M31.818 15.3012H24.1382C24.1382 10.9374 20.4467 7.38678 15.9098 7.38678V0C24.6819 0 31.818 6.86381 31.818 15.3012Z" fill="#0D9739"/>
<path d="M15.9082 38C7.13609 38 0 31.1362 0 22.6988C0 14.2614 7.13609 7.39764 15.9082 7.39764V14.7844C11.3713 14.7844 7.67981 18.335 7.67981 22.6988C7.67981 27.0626 11.3713 30.6132 15.9082 30.6132C20.4451 30.6132 24.1365 27.0626 24.1365 22.6988H31.8147C31.818 31.1362 24.6819 38 15.9082 38Z" fill="#294D9C"/>
<path d="M44.9059 23.6935C44.217 23.9946 43.4248 24.1451 42.5294 24.1451C41.713 24.1451 40.9579 24.0163 40.2658 23.7572C39.5736 23.498 38.9734 23.1318 38.4652 22.6569C37.957 22.1821 37.5585 21.6156 37.2697 20.953C36.9809 20.2904 36.8373 19.5625 36.8373 18.7664C36.8373 17.9517 36.9857 17.2146 37.2794 16.552C37.573 15.8893 37.9796 15.3276 38.4975 14.862C39.0154 14.3965 39.622 14.0411 40.3206 13.7897C41.0176 13.5414 41.7711 13.4157 42.5778 13.4157C43.3264 13.4157 44.0589 13.5429 44.7817 13.7974C45.5029 14.0519 46.0902 14.4228 46.5387 14.9117L44.8043 16.5799C44.5655 16.2633 44.2509 16.0274 43.862 15.8754C43.4732 15.7233 43.0747 15.6457 42.6665 15.6457C42.218 15.6457 41.8082 15.7233 41.4339 15.8831C41.0612 16.043 40.7385 16.2587 40.4691 16.5364C40.1996 16.8142 39.9899 17.1432 39.8398 17.5219C39.6898 17.899 39.6172 18.3149 39.6172 18.7649C39.6172 19.2258 39.693 19.6463 39.8398 20.0296C39.9899 20.4145 40.1948 20.7404 40.4594 21.0151C40.724 21.2882 41.0402 21.5008 41.4081 21.6544C41.7775 21.8065 42.1809 21.8841 42.6197 21.8841C43.1279 21.8841 43.5716 21.7879 43.9508 21.597C44.3283 21.4061 44.6333 21.1547 44.8624 20.849L46.6403 22.4598C46.1692 22.9813 45.5932 23.3909 44.9059 23.6935Z" fill="#1E1E1C"/>
<path d="M51.7951 24.949C51.6451 25.323 51.4789 25.6551 51.295 25.9484C51.1094 26.2417 50.8916 26.49 50.6367 26.6948C50.3834 26.9012 50.0833 27.0564 49.7412 27.1619C49.3976 27.2674 48.991 27.3187 48.5231 27.3187C48.294 27.3187 48.0568 27.3031 47.8132 27.2768C47.568 27.2473 47.3566 27.2085 47.1775 27.1619L47.447 25.1771C47.5664 25.2159 47.6987 25.2469 47.8439 25.2702C47.9875 25.2935 48.1198 25.3059 48.2392 25.3059C48.6167 25.3059 48.8926 25.2206 49.062 25.0561C49.2314 24.8885 49.375 24.651 49.4944 24.3453L49.7332 23.7556L46.6241 16.7118H49.3443L51.0045 21.3115H51.0481L52.526 16.7118H55.1284L51.7951 24.949Z" fill="#1E1E1C"/>
<path d="M64.3474 20.2624C64.3474 20.7606 64.2683 21.2416 64.1086 21.6994C63.9505 22.1603 63.7182 22.5654 63.4132 22.913C63.1083 23.2637 62.7372 23.543 62.2984 23.7541C61.8595 23.9636 61.3626 24.0707 60.8043 24.0707C60.3445 24.0707 59.9121 23.9822 59.5039 23.8053C59.0957 23.6299 58.7763 23.3878 58.5488 23.079H58.5181V27.3202H56.0674V16.7118H58.4004V17.5902H58.4439C58.673 17.3031 58.9893 17.0517 59.3926 16.8344C59.796 16.6187 60.2703 16.5116 60.8205 16.5116C61.3594 16.5116 61.8466 16.6109 62.2854 16.8127C62.7243 17.0144 63.0954 17.2875 63.4003 17.6321C63.7052 17.9766 63.9392 18.3769 64.1021 18.8316C64.2667 19.2894 64.3474 19.7658 64.3474 20.2624ZM61.9724 20.2624C61.9724 20.0328 61.9353 19.8077 61.8595 19.5874C61.7837 19.367 61.674 19.173 61.5304 19.0054C61.3868 18.8378 61.2045 18.7028 60.985 18.5957C60.7672 18.4902 60.5107 18.439 60.2235 18.439C59.9428 18.439 59.6959 18.4918 59.4749 18.5957C59.2571 18.7013 59.0683 18.8394 58.915 19.0116C58.7602 19.1839 58.6424 19.381 58.5553 19.6013C58.4714 19.8217 58.4278 20.0467 58.4278 20.2764C58.4278 20.5061 58.4697 20.7311 58.5553 20.9514C58.6391 21.1718 58.7585 21.3673 58.915 21.5411C59.0699 21.7134 59.2571 21.8531 59.4749 21.957C59.6927 22.0626 59.9428 22.1169 60.2235 22.1169C60.5123 22.1169 60.7672 22.0641 60.985 21.957C61.2028 21.8515 61.3868 21.7134 61.5304 21.5411C61.674 21.3689 61.7837 21.1703 61.8595 20.9452C61.9337 20.7218 61.9724 20.4937 61.9724 20.2624Z" fill="#1E1E1C"/>
<path d="M72.687 13.6935V15.835H68.5938V23.8705H66.0237V13.6935H72.687Z" fill="#1E1E1C"/>
<path d="M75.9317 13.6935L78.142 18.754L80.2653 13.6935H83L79.3989 21.6575C79.2407 22.0114 79.0568 22.3434 78.8535 22.6492C78.6486 22.9564 78.405 23.2202 78.121 23.4406C77.8371 23.661 77.5015 23.8348 77.1127 23.9651C76.7238 24.0939 76.2656 24.1576 75.738 24.1576C75.2702 24.1576 74.8845 24.1219 74.5796 24.0489C74.2747 23.976 74.0262 23.8891 73.831 23.7882C73.6374 23.6858 73.4825 23.5787 73.3679 23.4608C73.2534 23.3444 73.1518 23.2451 73.0614 23.1582L74.6458 21.4387C74.7765 21.5722 74.9394 21.715 75.1379 21.8639C75.3363 22.0129 75.5654 22.0874 75.8236 22.0874C76.022 22.0874 76.2027 22.0517 76.3624 21.9788C76.5205 21.9074 76.6722 21.7863 76.811 21.6141L73.0904 13.6935H75.9333H75.9317Z" fill="#1E1E1C"/>
</svg>
